<svg width="16" height="15" viewBox="0 0 16 15" fill="none" xmlns="http://www.w3.org/2000/svg">
<path d="M1 7.88242V4.89419C1 4.33414 1 4.05411 1.10899 3.8402C1.20487 3.65204 1.35785 3.49906 1.54601 3.40318C1.75992 3.29419 2.03995 3.29419 2.6 3.29419H3.29412" stroke="#8B8B8B" stroke-width="2"/>
<path d="M14.7646 7.88242V4.89419C14.7646 4.33414 14.7646 4.05411 14.6557 3.8402C14.5598 3.65204 14.4068 3.49906 14.2186 3.40318C14.0047 3.29419 13.7247 3.29419 13.1646 3.29419H12.4705" stroke="#8B8B8B" stroke-width="2"/>
<path d="M2.5293 1.76465L4.82341 3.29406L2.5293 4.82347V1.76465Z" fill="#8B8B8B"/>
<path d="M13.2354 1.76465L10.9412 3.29406L13.2354 4.82347V1.76465Z" fill="#8B8B8B"/>
<path d="M10.1763 10.9413C10.1763 10.4477 10.1763 10.2009 10.2615 10.0079C10.3622 9.77994 10.5443 9.59775 10.7723 9.49707C10.9653 9.41187 11.2121 9.41187 11.7057 9.41187V9.41187L12.4704 10.1766H13.1645C13.7246 10.1766 14.0046 10.1766 14.2185 10.2856C14.4067 10.3814 14.5596 10.5344 14.6555 10.7226C14.7645 10.9365 14.7645 11.2165 14.7645 11.7766V12.4001C14.7645 12.9602 14.7645 13.2402 14.6555 13.4541C14.5596 13.6423 14.4067 13.7952 14.2185 13.8911C14.0046 14.0001 13.7246 14.0001 13.1645 14.0001H11.7763C11.2162 14.0001 10.9362 14.0001 10.7223 13.8911C10.5341 13.7952 10.3811 13.6423 10.2853 13.4541C10.1763 13.2402 10.1763 12.9602 10.1763 12.4001V10.9413Z" stroke="#8B8B8B" stroke-width="2" stroke-linejoin="round"/>
<path d="M1 10.9413C1 10.4477 1 10.2009 1.08521 10.0079C1.18588 9.77994 1.36807 9.59775 1.59608 9.49707C1.78905 9.41187 2.03584 9.41187 2.52941 9.41187V9.41187L3.29412 10.1766H3.98824C4.54829 10.1766 4.82831 10.1766 5.04223 10.2856C5.23039 10.3814 5.38337 10.5344 5.47924 10.7226C5.58824 10.9365 5.58824 11.2165 5.58824 11.7766V12.4001C5.58824 12.9602 5.58824 13.2402 5.47924 13.4541C5.38337 13.6423 5.23039 13.7952 5.04223 13.8911C4.82831 14.0001 4.54829 14.0001 3.98824 14.0001H2.6C2.03995 14.0001 1.75992 14.0001 1.54601 13.8911C1.35785 13.7952 1.20487 13.6423 1.10899 13.4541C1 13.2402 1 12.9602 1 12.4001V10.9413Z" stroke="#8B8B8B" stroke-width="2" stroke-linejoin="round"/>
<path d="M5.58838 2.52941C5.58838 2.03584 5.58838 1.78905 5.67358 1.59608C5.77426 1.36807 5.95645 1.18588 6.18446 1.08521C6.37743 1 6.62422 1 7.11779 1V1L7.8825 1.76471H8.57661C9.13667 1.76471 9.41669 1.76471 9.6306 1.8737C9.81877 1.96957 9.97175 2.12255 10.0676 2.31072C10.1766 2.52463 10.1766 2.80465 10.1766 3.36471V3.98824C10.1766 4.54829 10.1766 4.82831 10.0676 5.04223C9.97175 5.23039 9.81877 5.38337 9.6306 5.47924C9.41669 5.58824 9.13667 5.58824 8.57661 5.58824H7.18838C6.62833 5.58824 6.3483 5.58824 6.13439 5.47924C5.94623 5.38337 5.79325 5.23039 5.69737 5.04223C5.58838 4.82831 5.58838 4.54829 5.58838 3.98824V2.52941Z" stroke="#8B8B8B" stroke-width="2" stroke-linejoin="round"/>
</svg>
